<?xml version="1.0" encoding="UTF-8"?>
<svg xmlns="http://www.w3.org/2000/svg" xml:space="preserve"
  width="380" height="80" viewBox="0 0 380 80"
  style="shape-rendering:geometricPrecision; text-rendering:geometricPrecision;">
  <rect x="0" y="0" width="80" height="80" rx="6" ry="6" fill="#2D5016"/>
  <g transform="translate(10, 21) scale(0.848)">
    <polygon fill="white" points="12.0219,0 0,0 7.6959,18.2734 19.3722,18.2734"/>
    <polygon fill="white" points="39.5884,18.2734 32.0853,0 20.3072,0 27.9013,18.2734"/>
    <polygon fill="white" points="12.0966,28.7224 18.4389,43.7819 23.7189,29.0797 23.5751,28.7224"/>
    <polygon fill="white" points="32.2438,28.7224 38.1085,42.8343 39.6533,38.7414 39.6533,38.7411 43.4347,28.7224 39.6533,28.7224"/>
    <polygon fill="white" points="43.5279,0.2818 48.2053,11.3497 59.6749,11.3497 59.6749,18.2734 70.7408,18.2734 70.7408,0.2818"/>
    <path fill="white" d="M59.6749 29.4504c0,1.6037 -1.3039,2.9079 -2.907,2.9079l-9.1411 0 -3.9787 10.5417 0 0.4935 13.9111 0c7.353,-0.5013 13.1816,-6.6446 13.1816,-14.1244l0 -0.5467 -11.0659 0 0 0.728z"/>
    <polygon fill="white" points="13.0339,25.5074 13.5768,25.5074 13.5768,20.6346 13.0339,20.6346 13.0339,22.6121 10.5393,22.6121 10.5393,20.6346 9.9964,20.6346 9.9964,25.5074 10.5393,25.5074 10.5393,23.1162 13.0339,23.1162"/>
    <path fill="white" d="M20.0127 21.0546c0.362,0 0.6969,0.0895 1.005,0.2682 0.308,0.1788 0.5515,0.4244 0.7303,0.7367 0.1787,0.3125 0.2682,0.6496 0.2682,1.0115 0,0.3533 -0.0872,0.685 -0.2617,0.9952 -0.1745,0.3102 -0.418,0.558 -0.7304,0.7433 -0.3124,0.1852 -0.6473,0.2778 -1.0049,0.2778 -0.3533,0 -0.684,-0.0915 -0.992,-0.2746 -0.3081,-0.1831 -0.5526,-0.4298 -0.7336,-0.74 -0.1809,-0.3102 -0.2713,-0.6441 -0.2713,-1.0017 0,-0.3576 0.0881,-0.6904 0.2649,-0.9986 0.1766,-0.308 0.4179,-0.5546 0.7238,-0.7399 0.3059,-0.1852 0.6398,-0.2779 1.0017,-0.2779zm-2.1941 0.769c-0.2261,0.3878 -0.3392,0.8057 -0.3392,1.2539 0,0.4481 0.114,0.8671 0.3425,1.2569 0.2283,0.39 0.5385,0.697 0.9306,0.9209 0.392,0.2242 0.8144,0.3361 1.2667,0.3361 0.461,0 0.8864,-0.1131 1.2764,-0.3392 0.3899,-0.2263 0.698,-0.5333 0.9241,-0.921 0.2263,-0.3877 0.3394,-0.8056 0.3394,-1.2537 0,-0.4525 -0.1153,-0.8747 -0.3458,-1.2668 -0.2305,-0.3919 -0.5407,-0.7 -0.9306,-0.9242 -0.39,-0.2239 -0.8111,-0.336 -1.2635,-0.336 -0.4567,0 -0.8812,0.1153 -1.2732,0.3458 -0.3921,0.2304 -0.7012,0.5396 -0.9274,0.9273z"/>
    <path fill="white" d="M29.3565 23.6268c0,0.2887 -0.0172,0.5041 -0.0517,0.6463 -0.0345,0.1421 -0.0937,0.2682 -0.1777,0.378 -0.084,0.1099 -0.2155,0.2101 -0.3942,0.3005 -0.1788,0.0905 -0.3695,0.1357 -0.572,0.1357 -0.2155,0 -0.4233,-0.0538 -0.6237,-0.1615 -0.2003,-0.1077 -0.3457,-0.2477 -0.4362,-0.4201 -0.0904,-0.1722 -0.1357,-0.4609 -0.1357,-0.866l0 -3.0051 -0.5429 0 0 3.0956c0,0.4697 0.0785,0.8251 0.2359,1.0664 0.1573,0.2413 0.3705,0.4341 0.6399,0.5783 0.2692,0.1444 0.5568,0.2165 0.8627,0.2165 0.2457,0 0.4793,-0.0452 0.7013,-0.1357 0.2218,-0.0904 0.4168,-0.2207 0.5848,-0.3909 0.1681,-0.1702 0.2854,-0.3533 0.3522,-0.5494 0.0668,-0.196 0.1002,-0.4534 0.1002,-0.7723l0 -3.1085 -0.5429 0 0 2.9922z"/>
    <polygon fill="white" points="35.2951,25.5074 35.2951,21.1386 36.4839,21.1386 36.4839,20.6346 33.5759,20.6346 33.5759,21.1386 34.7521,21.1386 34.7521,25.5074"/>
    <path fill="white" d="M40.7236 25.0032l0 -1.7577 0.5038 0c0.4353,0 0.7584,0.0732 0.9698,0.2197 0.2109,0.1464 0.3161,0.3618 0.3161,0.6465 0,0.2971 -0.1024,0.5198 -0.3066,0.6688 -0.205,0.1486 -0.5073,0.2227 -0.9081,0.2227l-0.575 0zm0 -3.8647l0.2456 0c0.4349,0 0.7267,0.0637 0.8755,0.1908 0.1489,0.1272 0.223,0.3349 0.223,0.6235 0,0.1854 -0.0314,0.3374 -0.0938,0.4556 -0.0625,0.1186 -0.1659,0.2103 -0.3101,0.2748 -0.1447,0.0647 -0.3736,0.0968 -0.6883,0.0968l-0.2519 0 0 -1.6415zm1.8772 4.0102c0.304,-0.239 0.4557,-0.5698 0.4557,-0.992 0,-0.3058 -0.0864,-0.5742 -0.2586,-0.8046 -0.1725,-0.2304 -0.394,-0.3802 -0.6657,-0.4491 0.168,-0.1122 0.29,-0.2489 0.3652,-0.4103 0.0755,-0.1618 0.1132,-0.3416 0.1132,-0.5399 0,-0.4264 -0.1379,-0.7527 -0.4134,-0.9788 -0.2759,-0.2265 -0.6703,-0.3395 -1.1829,-0.3395l-0.8336 0 0 4.873 1.1631 0c0.5341,0 0.9532,-0.1198 1.257,-0.3588z"/>
    <path fill="white" d="M47.5541 22.0723c0.1764,-0.3079 0.418,-0.5545 0.7235,-0.7399 0.3063,-0.1851 0.6403,-0.2779 1.0019,-0.2779 0.362,0 0.6968,0.0895 1.0051,0.2685 0.308,0.1785 0.5514,0.4242 0.7302,0.7364 0.1789,0.3126 0.2682,0.6496 0.2682,1.0114 0,0.3536 -0.0872,0.6852 -0.2618,0.9955 -0.1743,0.31 -0.418,0.5579 -0.7303,0.7433 -0.3125,0.185 -0.6473,0.2779 -1.0047,0.2779 -0.3534,0 -0.6844,-0.0917 -0.9923,-0.2748 -0.3076,-0.1832 -0.5525,-0.4299 -0.7335,-0.74 -0.1809,-0.31 -0.2712,-0.644 -0.2712,-1.0019 0,-0.3575 0.0882,-0.6902 0.2649,-0.9985zm0.4653 3.183c0.392,0.2241 0.8142,0.3362 1.2668,0.3362 0.4608,0 0.8862,-0.1131 1.2764,-0.3391 0.3895,-0.2265 0.6978,-0.5335 0.9239,-0.9211 0.2261,-0.3878 0.3394,-0.8058 0.3394,-1.2537 0,-0.4526 -0.1154,-0.8748 -0.3457,-1.2669 -0.2304,-0.3919 -0.5409,-0.7001 -0.9307,-0.924 -0.3898,-0.2241 -0.811,-0.3362 -1.2633,-0.3362 -0.4568,0 -0.8812,0.1152 -1.2731,0.346 -0.3923,0.2304 -0.7014,0.5395 -0.9275,0.927 -0.2265,0.3879 -0.3394,0.8058 -0.3394,1.2541 0,0.4479 0.114,0.8671 0.3426,1.2568 0.2282,0.39 0.5387,0.697 0.9306,0.9209z"/>
    <path fill="white" d="M55.6892 20.6345l0 3.0957c0,0.4697 0.0786,0.8251 0.236,1.0662 0.1573,0.2414 0.3704,0.4341 0.6399,0.5785 0.2692,0.1443 0.5563,0.2166 0.8625,0.2166 0.2459,0 0.4795,-0.0454 0.7014,-0.1357 0.2219,-0.0905 0.4166,-0.2209 0.5849,-0.391 0.1679,-0.1703 0.2854,-0.3533 0.352,-0.5494 0.0667,-0.1961 0.1002,-0.4534 0.1002,-0.7723l0 -3.1086 -0.5425 0 0 2.9921c0,0.289 -0.0177,0.5044 -0.0519,0.6465 -0.0346,0.1422 -0.0938,0.2681 -0.1778,0.3781 -0.0839,0.1097 -0.2156,0.2099 -0.3941,0.3002 -0.1791,0.0907 -0.3697,0.1361 -0.5722,0.1361 -0.2151,0 -0.4229,-0.0539 -0.6233,-0.1618 -0.2004,-0.1075 -0.3461,-0.2476 -0.4364,-0.4201 -0.0906,-0.1721 -0.1358,-0.4608 -0.1358,-0.8658l0 -3.0053 -0.5429 0z"/>
    <polygon fill="white" points="67.8836,25.7594 69.7516,20.6345 69.1632,20.6345 67.8836,24.286 66.3067,20.3823 64.7298,24.286 63.4503,20.6345 62.8622,20.6345 64.7298,25.7594 66.3067,21.8367"/>
  </g>
  <text x="98" y="38" font-family="'Trebuchet MS', Arial, sans-serif" font-size="28" font-weight="700" fill="#2D5016" letter-spacing="0.3">W&amp;J Houtbouw</text>
  <text x="100" y="60" font-family="'Trebuchet MS', Arial, sans-serif" font-size="15" font-weight="400" fill="#666666" letter-spacing="1.8">BUITENMEUBILAIR</text>
</svg>