<svg xmlns="http://www.w3.org/2000/svg" width="80" height="80" viewBox="0 0 80 80">
  <rect x="0" y="0" width="80" height="80" rx="6" ry="6" fill="#2D5016"/>
  <g transform="translate(10, 21) scale(0.848)">
    <polygon fill="white" points="12.0219,0 0,0 7.6959,18.2734 19.3722,18.2734"/>
    <polygon fill="white" points="39.5884,18.2734 32.0853,0 20.3072,0 27.9013,18.2734"/>
    <polygon fill="white" points="12.0966,28.7224 18.4389,43.7819 23.7189,29.0797 23.5751,28.7224"/>
    <polygon fill="white" points="32.2438,28.7224 38.1085,42.8343 39.6533,38.7414 39.6533,38.7411 43.4347,28.7224 39.6533,28.7224"/>
    <polygon fill="white" points="43.5279,0.2818 48.2053,11.3497 59.6749,11.3497 59.6749,18.2734 70.7408,18.2734 70.7408,0.2818"/>
    <path fill="white" d="M59.6749 29.4504c0,1.6037 -1.3039,2.9079 -2.907,2.9079l-9.1411 0 -3.9787 10.5417 0 0.4935 13.9111 0c7.353,-0.5013 13.1816,-6.6446 13.1816,-14.1244l0 -0.5467 -11.0659 0 0 0.728z"/>
  </g>
</svg>
